<?xml version="1.0" encoding="UTF-8" standalone="no"?>
<svg
   xmlns:dc="http://purl.org/dc/elements/1.1/"
   xmlns:cc="http://creativecommons.org/ns#"
   xmlns:rdf="http://www.w3.org/1999/02/22-rdf-syntax-ns#"
   xmlns:svg="http://www.w3.org/2000/svg"
   xmlns="http://www.w3.org/2000/svg"
   xmlns:sodipodi="http://sodipodi.sourceforge.net/DTD/sodipodi-0.dtd"
   xmlns:inkscape="http://www.inkscape.org/namespaces/inkscape"
   aria-hidden="true"
   focusable="false"
   data-prefix="fas"
   data-icon="book-reader"
   class="svg-inline--fa fa-book-reader fa-w-16"
   role="img"
   viewBox="0 0 512 512"
   version="1.1"
   id="svg86"
   sodipodi:docname="logo.svg"
   inkscape:version="1.0.1 (c497b03c, 2020-09-10)">
  <metadata
     id="metadata92">
    <rdf:RDF>
      <cc:Work
         rdf:about="">
        <dc:format>image/svg+xml</dc:format>
        <dc:type
           rdf:resource="http://purl.org/dc/dcmitype/StillImage" />
      </cc:Work>
    </rdf:RDF>
  </metadata>
  <defs
     id="defs90" />
  <sodipodi:namedview
     pagecolor="#ffffff"
     bordercolor="#666666"
     borderopacity="1"
     objecttolerance="10"
     gridtolerance="10"
     guidetolerance="10"
     inkscape:pageopacity="0"
     inkscape:pageshadow="2"
     inkscape:window-width="1440"
     inkscape:window-height="900"
     id="namedview88"
     showgrid="false"
     inkscape:zoom="1.1523438"
     inkscape:cx="150.99661"
     inkscape:cy="256"
     inkscape:window-x="0"
     inkscape:window-y="0"
     inkscape:window-maximized="0"
     inkscape:current-layer="svg86" />
  <path
     fill="currentColor"
     d="M352 96c0-53.02-42.98-96-96-96s-96 42.98-96 96 42.98 96 96 96 96-42.98 96-96zM233.59 241.1c-59.33-36.32-155.43-46.3-203.79-49.05C13.55 191.13 0 203.51 0 219.14v222.8c0 14.33 11.59 26.28 26.49 27.05 43.66 2.29 131.99 10.68 193.04 41.43 9.37 4.72 20.48-1.71 20.48-11.87V252.56c-.01-4.67-2.32-8.95-6.42-11.46zm248.61-49.05c-48.35 2.74-144.46 12.73-203.78 49.05-4.1 2.51-6.41 6.96-6.41 11.63v245.79c0 10.19 11.14 16.63 20.54 11.9 61.04-30.72 149.32-39.11 192.97-41.4 14.9-.78 26.49-12.73 26.49-27.06V219.14c-.01-15.63-13.56-28.01-29.81-27.09z"
     id="path84" />
  <path
     style="fill:#2c2c2c;fill-opacity:0.73;stroke:#2c2c2c;stroke-width:0.867797;stroke-opacity:1"
     d="m 244.28475,190.80473 c -49.31801,-6.16031 -85.93843,-49.85317 -83.48977,-99.613998 1.19447,-24.273737 11.3992,-46.573663 29.10405,-63.599764 20.51108,-19.7247493 45.55804,-28.7148264 74.12809,-26.60671317 46.74651,3.44930987 84.8488,42.87528017 87.1779,90.20647717 0.56073,11.394938 -0.54008,20.778288 -3.72828,31.780098 -12.83914,44.30517 -57.34407,73.56076 -103.19199,67.8339 z"
     id="path941" />
  <path
     style="fill:#2c2c2c;fill-opacity:0.73;stroke:#2c2c2c;stroke-width:0.867797;stroke-opacity:1"
     d="M 218.28553,509.24402 C 206.72478,503.15001 182.37493,494.26131 161.7201,488.59529 131.54811,480.31852 88.01155,473.12249 51.2,470.32773 16.632487,467.70335 15.345214,467.38435 8.0056641,459.62386 -0.24169724,450.90349 0.43389831,462.45172 0.43389831,330.19661 V 213.91186 L 2.7317903,209.01058 C 7.160504,199.56437 15.474297,193.6788 25.529135,192.87169 c 9.80766,-0.78726 48.027886,2.82386 76.865345,7.2624 44.14966,6.79531 82.22373,17.3528 110.76383,30.71348 14.34389,6.7149 22.39953,11.84501 24.51764,15.6137 l 1.83591,3.26656 -0.002,125.71235 c -8.7e-4,117.95189 -0.095,125.89879 -1.51865,128.73236 -3.36915,6.70586 -12.26345,8.99484 -19.70634,5.07148 z"
     id="path943" />
  <path
     style="fill:#2c2c2c;fill-opacity:0.73;stroke:#2c2c2c;stroke-width:0.867797;stroke-opacity:1"
     d="m 278.56227,509.17966 c -1.57327,-1.0739 -3.58356,-3.31323 -4.46731,-4.97629 -1.54259,-2.90288 -1.60682,-8.04954 -1.60682,-128.74964 v -125.7259 l 1.83591,-3.26656 c 1.30359,-2.31942 3.81419,-4.44334 8.65871,-7.32506 32.51171,-19.33936 85.66735,-34.3506 149.17995,-42.12865 17.70218,-2.16789 42.78499,-4.33099 50.39165,-4.34569 12.11772,-0.0234 20.83954,5.05386 25.97445,15.12066 l 3.03729,5.95449 v 116.80607 116.80606 l -2.26738,4.77288 c -5.1545,10.85034 -12.89465,15.37814 -28.38047,16.60189 -59.90713,4.73408 -94.58101,10.07289 -132.27699,20.36693 -18.90166,5.16168 -42.95176,14.00054 -55.50838,20.40036 -4.52222,2.30488 -10.93851,2.16769 -14.57061,-0.31155 z"
     id="path945" />
</svg>
