<?xml version="1.0" encoding="UTF-8" standalone="no"?>
<svg
   xmlns:dc="http://purl.org/dc/elements/1.1/"
   xmlns:cc="http://creativecommons.org/ns#"
   xmlns:rdf="http://www.w3.org/1999/02/22-rdf-syntax-ns#"
   xmlns:svg="http://www.w3.org/2000/svg"
   xmlns="http://www.w3.org/2000/svg"
   xmlns:sodipodi="http://sodipodi.sourceforge.net/DTD/sodipodi-0.dtd"
   xmlns:inkscape="http://www.inkscape.org/namespaces/inkscape"
   aria-hidden="true"
   focusable="false"
   data-prefix="fas"
   data-icon="book-reader"
   class="svg-inline--fa fa-book-reader fa-w-16"
   role="img"
   viewBox="0 0 512 512"
   version="1.1"
   id="svg86"
   sodipodi:docname="logo.svg"
   inkscape:version="1.0.1 (c497b03c, 2020-09-10)">
  <metadata
     id="metadata92">
    <rdf:RDF>
      <cc:Work
         rdf:about="">
        <dc:format>image/svg+xml</dc:format>
        <dc:type
           rdf:resource="http://purl.org/dc/dcmitype/StillImage" />
      </cc:Work>
    </rdf:RDF>
  </metadata>
  <defs
     id="defs90" />
  <sodipodi:namedview
     pagecolor="#ffffff"
     bordercolor="#666666"
     borderopacity="1"
     objecttolerance="10"
     gridtolerance="10"
     guidetolerance="10"
     inkscape:pageopacity="0"
     inkscape:pageshadow="2"
     inkscape:window-width="1440"
     inkscape:window-height="798"
     id="namedview88"
     showgrid="false"
     inkscape:zoom="1.1523438"
     inkscape:cx="161.41017"
     inkscape:cy="243.85085"
     inkscape:window-x="0"
     inkscape:window-y="25"
     inkscape:window-maximized="0"
     inkscape:current-layer="svg86"
     inkscape:document-rotation="0" />
  <path
     fill="currentColor"
     d="M352 96c0-53.02-42.98-96-96-96s-96 42.98-96 96 42.98 96 96 96 96-42.98 96-96zM233.59 241.1c-59.33-36.32-155.43-46.3-203.79-49.05C13.55 191.13 0 203.51 0 219.14v222.8c0 14.33 11.59 26.28 26.49 27.05 43.66 2.29 131.99 10.68 193.04 41.43 9.37 4.72 20.48-1.71 20.48-11.87V252.56c-.01-4.67-2.32-8.95-6.42-11.46zm248.61-49.05c-48.35 2.74-144.46 12.73-203.78 49.05-4.1 2.51-6.41 6.96-6.41 11.63v245.79c0 10.19 11.14 16.63 20.54 11.9 61.04-30.72 149.32-39.11 192.97-41.4 14.9-.78 26.49-12.73 26.49-27.06V219.14c-.01-15.63-13.56-28.01-29.81-27.09z"
     id="path84" />
  <path
     style="fill:#2c2c2c;fill-opacity:0.73;stroke:#2c2c2c;stroke-width:0.867797;stroke-opacity:1"
     d="m 244.28475,190.80473 c -49.31801,-6.16031 -85.93843,-49.85317 -83.48977,-99.613998 1.19447,-24.273737 11.3992,-46.573663 29.10405,-63.599764 20.51108,-19.7247493 45.55804,-28.7148264 74.12809,-26.60671317 46.74651,3.44930987 84.8488,42.87528017 87.1779,90.20647717 0.56073,11.394938 -0.54008,20.778288 -3.72828,31.780098 -12.83914,44.30517 -57.34407,73.56076 -103.19199,67.8339 z"
     id="path941" />
  <path
     style="fill:#2c2c2c;fill-opacity:0.73;stroke:#2c2c2c;stroke-width:0.867797;stroke-opacity:1"
     d="M 218.28553,509.24402 C 206.72478,503.15001 182.37493,494.26131 161.7201,488.59529 131.54811,480.31852 88.01155,473.12249 51.2,470.32773 16.632487,467.70335 15.345214,467.38435 8.0056641,459.62386 -0.24169724,450.90349 0.43389831,462.45172 0.43389831,330.19661 V 213.91186 L 2.7317903,209.01058 C 7.160504,199.56437 15.474297,193.6788 25.529135,192.87169 c 9.80766,-0.78726 48.027886,2.82386 76.865345,7.2624 44.14966,6.79531 82.22373,17.3528 110.76383,30.71348 14.34389,6.7149 22.39953,11.84501 24.51764,15.6137 l 1.83591,3.26656 -0.002,125.71235 c -8.7e-4,117.95189 -0.095,125.89879 -1.51865,128.73236 -3.36915,6.70586 -12.26345,8.99484 -19.70634,5.07148 z"
     id="path943" />
  <path
     style="fill:#2c2c2c;fill-opacity:0.73;stroke:#2c2c2c;stroke-width:0.867797;stroke-opacity:1"
     d="m 278.56227,509.17966 c -1.57327,-1.0739 -3.58356,-3.31323 -4.46731,-4.97629 -1.54259,-2.90288 -1.60682,-8.04954 -1.60682,-128.74964 v -125.7259 l 1.83591,-3.26656 c 1.30359,-2.31942 3.81419,-4.44334 8.65871,-7.32506 32.51171,-19.33936 85.66735,-34.3506 149.17995,-42.12865 17.70218,-2.16789 42.78499,-4.33099 50.39165,-4.34569 12.11772,-0.0234 20.83954,5.05386 25.97445,15.12066 l 3.03729,5.95449 v 116.80607 116.80606 l -2.26738,4.77288 c -5.1545,10.85034 -12.89465,15.37814 -28.38047,16.60189 -59.90713,4.73408 -94.58101,10.07289 -132.27699,20.36693 -18.90166,5.16168 -42.95176,14.00054 -55.50838,20.40036 -4.52222,2.30488 -10.93851,2.16769 -14.57061,-0.31155 z"
     id="path945" />
  <path
     style="fill:#ffffff;fill-opacity:0.73;stroke:#2c2c2c;stroke-width:0.867797"
     d="M 215.79542,507.23967 C 177.2412,488.76305 114.79181,474.55055 49.898309,469.48408 18.919768,467.06547 15.809423,466.28867 8.8325787,459.22804 5.5934767,455.95003 3.4324093,452.90112 2.8107042,450.73216 2.1248747,448.33949 1.7517621,413.12914 1.5361578,330.45416 l -0.304845,-116.89498 2.2343227,-4.40923 c 4.4980827,-8.87654 12.6124535,-14.53681 22.0687075,-15.39427 10.162727,-0.92152 52.909116,3.25602 82.172737,8.03063 44.67222,7.28865 82.38836,18.37416 110.32429,32.42644 11.86299,5.96729 16.93906,9.46111 19.39947,13.35248 1.75974,2.78318 1.7654,3.28204 1.4488,127.7568 -0.30991,121.84617 -0.3601,125.04928 -2.0123,128.43389 -3.45615,7.08008 -10.9741,8.32299 -21.07192,3.48375 z"
     id="path883" />
  <path
     style="fill:#ffffff;fill-opacity:0.73;stroke:#2c2c2c;stroke-width:0.867797"
     d="m 218.68474,507.28314 c -2.86373,-1.11267 -8.5261,-3.46722 -12.58305,-5.23233 C 169.5406,486.14364 114.24657,474.31147 49.898309,468.62538 26.36411,466.5458 20.407985,465.6245 16.017422,463.38459 11.934453,461.30162 4.2859276,452.93733 3.5835407,449.78712 3.2845692,448.44623 2.7910739,394.6305 2.4868845,330.19661 L 1.9338129,213.04407 5.7397907,207.45309 c 7.2439403,-10.64135 14.8542953,-13.70694 31.5754683,-12.71915 45.147676,2.66706 97.381201,11.44178 135.057041,22.68825 25.5225,7.61862 52.65764,19.89946 61.33566,27.75933 l 4.06831,3.68475 -0.10955,124.84143 c -0.12051,137.33468 0.1813,129.92017 -5.44251,133.70463 -3.6837,2.4789 -6.90604,2.44814 -13.53947,-0.12919 z"
     id="path885" />
  <path
     style="fill:#ffffff;fill-opacity:0.73;stroke:#2c2c2c;stroke-width:0.867797"
     d="m 279.25568,508.56393 c -1.52801,-0.93168 -3.45682,-2.98039 -4.28623,-4.55269 -1.40664,-2.6665 -1.53327,-11.21369 -1.88341,-127.12431 -0.20646,-68.34607 -0.12693,-125.25552 0.17674,-126.46543 1.31013,-5.21999 6.79344,-9.33918 23.58712,-17.7192 27.09129,-13.5185 71.81336,-25.83502 118.39077,-32.60496 18.93172,-2.7517 46.47185,-5.60784 60.74864,-6.30016 17.28649,-0.83825 24.61336,2.32721 31.35525,13.54657 l 3.35373,5.58104 v 117.4637 117.4637 l -1.85107,3.65356 c -4.42759,8.73895 -10.53076,13.43356 -19.84385,15.26402 -2.62508,0.51596 -11.99728,1.54397 -20.82711,2.28448 -55.54647,4.65833 -95.72129,11.6757 -132.33898,23.11576 -12.34147,3.85571 -31.484,11.16013 -40.35254,15.39775 -6.69377,3.19847 -12.07541,3.5288 -16.22906,0.99617 z"
     id="path887" />
  <path
     style="fill:#ffffff;fill-opacity:0.73;stroke:#2c2c2c;stroke-width:0.867797"
     d="m 279.8644,507.49295 c -5.7152,-3.88545 -5.3999,3.74796 -5.52611,-133.78494 l -0.11457,-124.84112 3.96995,-3.59277 c 14.72455,-13.32556 58.86309,-29.35231 107.9118,-39.18289 28.71322,-5.75484 71.53146,-10.94045 92.05045,-11.148 10.99181,-0.11118 12.56146,0.0671 16.47732,1.87204 5.42466,2.50032 7.35644,4.31527 11.71737,11.00867 l 3.47988,5.34113 v 117.66418 117.66418 l -3.68813,5.50243 c -4.49333,6.70373 -10.40505,10.55538 -18.26534,11.90041 -2.96017,0.50652 -15.92585,1.92912 -28.81263,3.16133 -68.28129,6.52888 -114.00747,16.57073 -155.76948,34.20825 -15.23208,6.43303 -19.14687,7.13929 -23.43051,4.2271 z"
     id="path889" />
  <path
     style="fill:#ffffff;fill-opacity:0.73;stroke:#2c2c2c;stroke-width:0.867797"
     d="m 243.85084,189.98427 c -40.29751,-5.51784 -73.11613,-36.56933 -80.65525,-76.31235 -1.74971,-9.22375 -1.74494,-26.362206 0.01,-35.613104 7.12801,-37.575844 38.3438,-68.4951287 75.76917,-75.0494826 9.48369,-1.6608918 25.83271,-1.6243497 34.80569,0.077795 18.81743,3.5696065 36.03872,12.9810076 49.64748,27.1322586 11.97142,12.44864 19.66918,25.938503 24.20832,42.423574 2.60266,9.452245 3.30358,31.003409 1.32579,40.764189 -7.77085,38.35074 -36.50193,67.38663 -74.6117,75.40327 -7.94243,1.67074 -22.71757,2.23941 -30.49943,1.17385 z"
     id="path891" />
  <path
     style="fill:#ffffff;fill-opacity:0.73;stroke:#2c2c2c;stroke-width:0.867797"
     d="m 245.07066,189.16834 c -33.0615,-3.96857 -63.61489,-27.51304 -75.78874,-58.40289 -7.6909,-19.51482 -8.64061,-43.108393 -2.51685,-62.52583 10.57967,-33.54642 41.31748,-59.9799929 75.23181,-64.697043 29.62,-4.11976212 56.56907,4.4961817 77.9471,24.920632 21.04522,20.106489 30.63998,44.659892 29.0619,74.370691 -0.63793,12.01041 -3.39464,21.91131 -9.66482,34.71187 -15.08833,30.80273 -45.18475,50.26146 -80.30378,51.92012 -4.53423,0.21415 -10.81922,0.0803 -13.96662,-0.29755 z"
     id="path893" />
  <path
     style="fill:#ffffff;fill-opacity:0.73;stroke:#2c2c2c;stroke-width:0.867797"
     d="m 220.42034,506.83928 c -2.38644,-0.8948 -10.12683,-4.0077 -17.20087,-6.91754 C 165.97336,484.60084 115.30769,473.96293 49.898309,467.72996 18.436434,464.73192 16.787633,464.26041 9.3647435,456.13859 5.7782325,452.21437 4.9203233,450.64098 4.4873011,447.19348 4.1983067,444.89266 3.6946308,391.26779 3.3680212,328.02712 L 2.7741858,213.04407 7.0277738,207.43336 C 15.77691,195.89278 21.912122,194.26629 48.354984,196.4772 c 39.09287,3.2686 73.185456,8.83039 107.848406,17.59416 32.42533,8.19804 63.70647,21.14183 76.35715,31.59574 l 3.98559,3.2935 -0.0629,120.02139 c -0.0346,66.01176 -0.39195,123.24132 -0.79408,127.17681 -0.77314,7.56633 -1.52912,9.12393 -5.39979,11.12553 -3.10004,1.6031 -4.58521,1.53612 -9.86901,-0.44505 z"
     id="path895" />
  <path
     style="fill:#ffffff;fill-opacity:0.73;stroke:#2c2c2c;stroke-width:0.867797"
     d="m 281.04383,506.89206 c -1.49911,-0.93157 -3.01769,-2.1663 -3.37462,-2.74383 -1.74306,-2.82032 -2.08531,-24.13184 -2.1701,-135.12786 l -0.0917,-119.98302 4.42405,-3.77629 c 11.50575,-9.82114 42.98168,-22.58932 78.26158,-31.74675 35.69786,-9.26592 82.22905,-16.20765 114.8668,-17.13634 17.34543,-0.49355 17.37198,-0.49145 21.69492,1.71353 4.73178,2.41351 7.406,5.0016 11.57675,11.20384 l 2.73115,4.06144 v 117.59697 117.59697 l -4.12204,5.39857 c -4.97738,6.51881 -10.55752,9.88058 -18.44067,11.10964 -3.10238,0.48369 -17.16068,2.08097 -31.24068,3.5495 -43.50021,4.53707 -70.85117,8.97992 -98.11796,15.93815 -19.96493,5.09487 -29.02709,8.03801 -49.84136,16.18705 -20.50937,8.02968 -22.42073,8.47971 -26.15616,6.15843 z"
     id="path897" />
  <path
     style="fill:#ffffff;fill-opacity:0.73;stroke:#2c2c2c;stroke-width:0.867797"
     d="m 280.17438,504.73725 c -2.38437,-2.05095 -2.39174,-2.09266 -3.02589,-17.13898 -0.34964,-8.29567 -0.66261,-65.32789 -0.69549,-126.73828 l -0.0598,-111.65525 5.42373,-4.07809 c 28.01833,-21.06692 109.67932,-42.58871 179.26903,-47.24644 21.25929,-1.4229 28.63309,-1.21274 32.70314,0.93209 4.45184,2.34603 8.53989,6.26693 11.75093,11.27045 l 2.55486,3.98106 v 116.99641 116.9964 l -3.68814,4.78857 c -3.9527,5.13208 -9.59074,9.22856 -14.52224,10.55155 -1.67785,0.45012 -17.3042,2.40636 -34.72521,4.3472 -49.44332,5.50839 -73.45695,9.46083 -100.50378,16.54207 -18.29299,4.78936 -24.55855,6.82684 -46.80752,15.2212 -10.62122,4.0073 -20.65504,7.286 -22.29737,7.286 -1.89005,0 -3.86337,-0.75463 -5.37626,-2.05596 z"
     id="path899" />
  <path
     style="fill:#ffffff;fill-opacity:0.73;stroke:#2c2c2c;stroke-width:0.867797"
     d="M 210.87457,501.95537 C 168.96702,484.96886 126.28825,475.14876 65.952546,468.60974 56.884072,467.62692 44.132015,466.23865 37.614641,465.52469 21.814117,463.79379 17.733471,462.49633 12.400149,457.50764 4.7292099,450.33238 5.3369189,455.80457 4.6705112,387.90508 4.3449453,354.73356 4.0395397,301.87198 3.9918321,270.43491 L 3.905091,213.2766 6.8690627,209.25525 c 4.2835913,-5.81173 7.3111273,-8.44607 12.2224683,-10.63509 3.763244,-1.67731 5.720755,-1.92022 14.752542,-1.8307 27.592668,0.27349 79.533707,7.7562 115.850847,16.68966 35.09794,8.63356 66.2104,20.91577 80.8401,31.91311 l 5.2087,3.91545 -0.36296,124.62074 c -0.22702,77.94618 -0.68127,125.59578 -1.21286,127.22411 -0.88714,2.71746 -5.6205,6.53663 -8.01827,6.46962 -0.76467,-0.0213 -7.63845,-2.57142 -15.27506,-5.66678 z"
     id="path901" />
  <path
     style="fill:#ffffff;fill-opacity:0.73;stroke:#2c2c2c;stroke-width:0.867797"
     d="m 237.61169,187.009 c -34.49065,-7.87953 -62.58065,-34.76258 -71.01033,-67.95922 -8.19952,-32.290229 0.5607,-63.882098 24.38347,-87.933841 32.62534,-32.9389046 82.82308,-36.9281122 119.29678,-9.480498 7.04678,5.302923 17.6372,16.300793 22.26647,23.12313 15.72826,23.179375 20.04989,52.960081 11.43992,78.833369 -10.44898,31.39957 -34.76223,54.26965 -66.17575,62.24774 -9.2302,2.3442 -32.14083,3.01059 -40.20056,1.16932 z"
     id="path903" />
</svg>
